<mxfile host="app.diagrams.net" modified="2023-04-18T23:56:42.223Z" agent="Mozilla/5.0 (Macintosh; Intel Mac OS X 10_15_7) AppleWebKit/537.36 (KHTML, like Gecko) Chrome/112.0.0.0 Safari/537.36" etag="rgZeuF6RkpKQXz_ayTbd" version="21.1.4" type="github" pages="2">
  <diagram id="OTWBPmGT2mkbnGXQPJGu" name="Page-1">
    <mxGraphModel dx="2284" dy="772" grid="1" gridSize="10" guides="1" tooltips="1" connect="1" arrows="1" fold="1" page="1" pageScale="1" pageWidth="850" pageHeight="1100" math="0" shadow="0">
      <root>
        <mxCell id="0" />
        <mxCell id="1" parent="0" />
        <mxCell id="v2_8lzb0Q4B1R9M_pPQn-1" value="Retrieval Plugin REST Endpoints" style="rounded=0;whiteSpace=wrap;html=1;fillColor=#d5e8d4;strokeColor=#82b366;gradientColor=#97d077;" parent="1" vertex="1">
          <mxGeometry x="280" y="100" width="120" height="210" as="geometry" />
        </mxCell>
        <mxCell id="v2_8lzb0Q4B1R9M_pPQn-11" style="edgeStyle=orthogonalEdgeStyle;rounded=0;orthogonalLoop=1;jettySize=auto;html=1;exitX=1;exitY=0.25;exitDx=0;exitDy=0;" parent="1" source="v2_8lzb0Q4B1R9M_pPQn-1" target="v2_8lzb0Q4B1R9M_pPQn-2" edge="1">
          <mxGeometry relative="1" as="geometry" />
        </mxCell>
        <mxCell id="v2_8lzb0Q4B1R9M_pPQn-14" value="create&lt;br&gt;embeddings" style="edgeLabel;html=1;align=center;verticalAlign=middle;resizable=0;points=[];" parent="v2_8lzb0Q4B1R9M_pPQn-11" vertex="1" connectable="0">
          <mxGeometry x="0.0538" relative="1" as="geometry">
            <mxPoint y="1" as="offset" />
          </mxGeometry>
        </mxCell>
        <mxCell id="v2_8lzb0Q4B1R9M_pPQn-12" style="edgeStyle=orthogonalEdgeStyle;rounded=0;orthogonalLoop=1;jettySize=auto;html=1;exitX=1;exitY=0.5;exitDx=0;exitDy=0;entryX=0;entryY=0.5;entryDx=0;entryDy=0;entryPerimeter=0;" parent="1" source="v2_8lzb0Q4B1R9M_pPQn-22" target="f5BD6x5yxC-e47OayBs4-9" edge="1">
          <mxGeometry relative="1" as="geometry">
            <mxPoint x="620" y="310" as="targetPoint" />
          </mxGeometry>
        </mxCell>
        <mxCell id="v2_8lzb0Q4B1R9M_pPQn-13" value="index/query/delete&lt;br&gt;documents" style="edgeLabel;html=1;align=center;verticalAlign=middle;resizable=0;points=[];" parent="v2_8lzb0Q4B1R9M_pPQn-12" vertex="1" connectable="0">
          <mxGeometry x="-0.4074" y="2" relative="1" as="geometry">
            <mxPoint x="17" y="2" as="offset" />
          </mxGeometry>
        </mxCell>
        <mxCell id="v2_8lzb0Q4B1R9M_pPQn-2" value="OpenAI Embedding Model&lt;br&gt;(text-embedding-ada-002&lt;span style=&quot;background-color: initial;&quot;&gt;)&lt;/span&gt;" style="rounded=0;whiteSpace=wrap;html=1;fillColor=#dae8fc;gradientColor=#7ea6e0;strokeColor=#6c8ebf;" parent="1" vertex="1">
          <mxGeometry x="510" y="70" width="140" height="70" as="geometry" />
        </mxCell>
        <mxCell id="v2_8lzb0Q4B1R9M_pPQn-6" style="edgeStyle=orthogonalEdgeStyle;rounded=0;orthogonalLoop=1;jettySize=auto;html=1;entryX=0;entryY=0.75;entryDx=0;entryDy=0;" parent="1" source="f5BD6x5yxC-e47OayBs4-1" target="v2_8lzb0Q4B1R9M_pPQn-1" edge="1">
          <mxGeometry relative="1" as="geometry">
            <mxPoint x="115" y="205" as="sourcePoint" />
          </mxGeometry>
        </mxCell>
        <mxCell id="v2_8lzb0Q4B1R9M_pPQn-9" value="retrieve results&lt;br&gt;for query" style="edgeLabel;html=1;align=center;verticalAlign=middle;resizable=0;points=[];" parent="v2_8lzb0Q4B1R9M_pPQn-6" vertex="1" connectable="0">
          <mxGeometry x="0.5409" y="-2" relative="1" as="geometry">
            <mxPoint x="-67" y="-34" as="offset" />
          </mxGeometry>
        </mxCell>
        <mxCell id="v2_8lzb0Q4B1R9M_pPQn-15" value="&lt;b&gt;&lt;font style=&quot;font-size: 14px;&quot;&gt;Legends&lt;/font&gt;&lt;/b&gt;" style="rounded=0;whiteSpace=wrap;html=1;dashed=1;dashPattern=1 1;fontSize=12;verticalAlign=top;fillColor=#f5f5f5;strokeColor=#666666;gradientColor=#b3b3b3;" parent="1" vertex="1">
          <mxGeometry x="220" y="390" width="250" height="160" as="geometry" />
        </mxCell>
        <mxCell id="v2_8lzb0Q4B1R9M_pPQn-16" value="" style="rounded=0;whiteSpace=wrap;html=1;dashed=1;dashPattern=1 1;fontSize=12;fillColor=#fff2cc;strokeColor=#d6b656;gradientColor=#ffd966;" parent="1" vertex="1">
          <mxGeometry x="233" y="427" width="30" height="20" as="geometry" />
        </mxCell>
        <mxCell id="v2_8lzb0Q4B1R9M_pPQn-17" value="Newly Added Component" style="text;html=1;strokeColor=none;fillColor=none;align=left;verticalAlign=middle;whiteSpace=wrap;rounded=0;dashed=1;dashPattern=1 1;fontSize=12;" parent="1" vertex="1">
          <mxGeometry x="273" y="422" width="170" height="30" as="geometry" />
        </mxCell>
        <mxCell id="v2_8lzb0Q4B1R9M_pPQn-18" value="" style="rounded=0;whiteSpace=wrap;html=1;dashed=1;dashPattern=1 1;fontSize=12;fillColor=#d5e8d4;strokeColor=#82b366;gradientColor=#97d077;" parent="1" vertex="1">
          <mxGeometry x="233" y="467" width="30" height="20" as="geometry" />
        </mxCell>
        <mxCell id="v2_8lzb0Q4B1R9M_pPQn-19" value="Changes in already created component" style="text;html=1;strokeColor=none;fillColor=none;align=left;verticalAlign=middle;whiteSpace=wrap;rounded=0;dashed=1;dashPattern=1 1;fontSize=12;" parent="1" vertex="1">
          <mxGeometry x="273" y="462" width="170" height="30" as="geometry" />
        </mxCell>
        <mxCell id="v2_8lzb0Q4B1R9M_pPQn-20" value="" style="rounded=0;whiteSpace=wrap;html=1;dashed=1;dashPattern=1 1;fontSize=12;fillColor=#dae8fc;strokeColor=#6c8ebf;gradientColor=#7ea6e0;" parent="1" vertex="1">
          <mxGeometry x="233" y="507" width="30" height="20" as="geometry" />
        </mxCell>
        <mxCell id="v2_8lzb0Q4B1R9M_pPQn-21" value="No change components" style="text;html=1;strokeColor=none;fillColor=none;align=left;verticalAlign=middle;whiteSpace=wrap;rounded=0;dashed=1;dashPattern=1 1;fontSize=12;" parent="1" vertex="1">
          <mxGeometry x="273" y="502" width="170" height="30" as="geometry" />
        </mxCell>
        <mxCell id="v2_8lzb0Q4B1R9M_pPQn-22" value="OpenSearch DB connector" style="rounded=0;whiteSpace=wrap;html=1;fillColor=#fff2cc;gradientColor=#ffd966;strokeColor=#d6b656;" parent="1" vertex="1">
          <mxGeometry x="301.5" y="250" width="87" height="35" as="geometry" />
        </mxCell>
        <mxCell id="f5BD6x5yxC-e47OayBs4-4" style="edgeStyle=orthogonalEdgeStyle;rounded=0;orthogonalLoop=1;jettySize=auto;html=1;exitX=0.5;exitY=1;exitDx=0;exitDy=0;entryX=0.442;entryY=-0.033;entryDx=0;entryDy=0;entryPerimeter=0;" edge="1" parent="1" source="f5BD6x5yxC-e47OayBs4-1" target="f5BD6x5yxC-e47OayBs4-3">
          <mxGeometry relative="1" as="geometry" />
        </mxCell>
        <mxCell id="f5BD6x5yxC-e47OayBs4-5" value="Argument results &lt;br&gt;with query" style="edgeLabel;html=1;align=center;verticalAlign=middle;resizable=0;points=[];" vertex="1" connectable="0" parent="f5BD6x5yxC-e47OayBs4-4">
          <mxGeometry x="0.016" relative="1" as="geometry">
            <mxPoint x="1" y="1" as="offset" />
          </mxGeometry>
        </mxCell>
        <mxCell id="f5BD6x5yxC-e47OayBs4-1" value="Chat Aplication" style="rounded=0;whiteSpace=wrap;html=1;fillColor=#dae8fc;gradientColor=#7ea6e0;strokeColor=#6c8ebf;" vertex="1" parent="1">
          <mxGeometry x="-10" y="155" width="120" height="140" as="geometry" />
        </mxCell>
        <mxCell id="f5BD6x5yxC-e47OayBs4-7" style="edgeStyle=orthogonalEdgeStyle;rounded=0;orthogonalLoop=1;jettySize=auto;html=1;exitX=0.5;exitY=0.5;exitDx=0;exitDy=0;exitPerimeter=0;" edge="1" parent="1" source="f5BD6x5yxC-e47OayBs4-2" target="f5BD6x5yxC-e47OayBs4-1">
          <mxGeometry relative="1" as="geometry" />
        </mxCell>
        <mxCell id="f5BD6x5yxC-e47OayBs4-8" value="Query/Questions" style="edgeLabel;html=1;align=center;verticalAlign=middle;resizable=0;points=[];" vertex="1" connectable="0" parent="f5BD6x5yxC-e47OayBs4-7">
          <mxGeometry x="-0.2585" y="1" relative="1" as="geometry">
            <mxPoint x="19" y="1" as="offset" />
          </mxGeometry>
        </mxCell>
        <mxCell id="f5BD6x5yxC-e47OayBs4-2" value="Application User" style="shape=umlActor;verticalLabelPosition=bottom;verticalAlign=top;html=1;outlineConnect=0;" vertex="1" parent="1">
          <mxGeometry x="-210" y="175" width="30" height="60" as="geometry" />
        </mxCell>
        <mxCell id="f5BD6x5yxC-e47OayBs4-6" style="edgeStyle=orthogonalEdgeStyle;rounded=0;orthogonalLoop=1;jettySize=auto;html=1;exitX=0;exitY=0.25;exitDx=0;exitDy=0;entryX=0;entryY=0.75;entryDx=0;entryDy=0;" edge="1" parent="1" source="f5BD6x5yxC-e47OayBs4-3" target="f5BD6x5yxC-e47OayBs4-1">
          <mxGeometry relative="1" as="geometry" />
        </mxCell>
        <mxCell id="f5BD6x5yxC-e47OayBs4-13" value="response" style="edgeLabel;html=1;align=center;verticalAlign=middle;resizable=0;points=[];" vertex="1" connectable="0" parent="f5BD6x5yxC-e47OayBs4-6">
          <mxGeometry x="0.2842" y="1" relative="1" as="geometry">
            <mxPoint as="offset" />
          </mxGeometry>
        </mxCell>
        <mxCell id="f5BD6x5yxC-e47OayBs4-3" value="Open AI Chat Completion API" style="rounded=0;whiteSpace=wrap;html=1;fillColor=#dae8fc;gradientColor=#7ea6e0;strokeColor=#6c8ebf;" vertex="1" parent="1">
          <mxGeometry x="-10" y="410" width="120" height="60" as="geometry" />
        </mxCell>
        <mxCell id="f5BD6x5yxC-e47OayBs4-9" value="OpenSearch Vector DB (Knowledge Base)" style="shape=cylinder3;whiteSpace=wrap;html=1;boundedLbl=1;backgroundOutline=1;size=15;fillColor=#fff2cc;strokeColor=#d6b656;gradientColor=#ffd966;" vertex="1" parent="1">
          <mxGeometry x="530" y="235" width="110" height="100" as="geometry" />
        </mxCell>
        <mxCell id="f5BD6x5yxC-e47OayBs4-11" style="edgeStyle=orthogonalEdgeStyle;rounded=0;orthogonalLoop=1;jettySize=auto;html=1;exitX=0.5;exitY=0.5;exitDx=0;exitDy=0;exitPerimeter=0;entryX=0;entryY=0.25;entryDx=0;entryDy=0;" edge="1" parent="1" source="f5BD6x5yxC-e47OayBs4-10" target="v2_8lzb0Q4B1R9M_pPQn-1">
          <mxGeometry relative="1" as="geometry" />
        </mxCell>
        <mxCell id="f5BD6x5yxC-e47OayBs4-12" value="Create Knowledge Base&lt;br&gt;(upser/upsert file)" style="edgeLabel;html=1;align=center;verticalAlign=middle;resizable=0;points=[];" vertex="1" connectable="0" parent="f5BD6x5yxC-e47OayBs4-11">
          <mxGeometry x="-0.3189" relative="1" as="geometry">
            <mxPoint as="offset" />
          </mxGeometry>
        </mxCell>
        <mxCell id="f5BD6x5yxC-e47OayBs4-10" value="Application Admin" style="shape=umlActor;verticalLabelPosition=bottom;verticalAlign=top;html=1;outlineConnect=0;" vertex="1" parent="1">
          <mxGeometry y="20" width="30" height="60" as="geometry" />
        </mxCell>
      </root>
    </mxGraphModel>
  </diagram>
  <diagram id="6ukQmABIN2io6i7MJJ2X" name="Page-2">
    <mxGraphModel dx="1434" dy="715" grid="1" gridSize="10" guides="1" tooltips="1" connect="1" arrows="1" fold="1" page="1" pageScale="1" pageWidth="850" pageHeight="1100" math="0" shadow="0">
      <root>
        <mxCell id="0" />
        <mxCell id="1" parent="0" />
        <mxCell id="n2oKB4tU9eQ9gqRYAK6W-1" value="" style="ellipse;whiteSpace=wrap;html=1;aspect=fixed;fillColor=#d5e8d4;gradientColor=#97d077;strokeColor=#82b366;" vertex="1" parent="1">
          <mxGeometry x="253" y="100" width="500" height="500" as="geometry" />
        </mxCell>
        <mxCell id="n2oKB4tU9eQ9gqRYAK6W-2" value="" style="ellipse;whiteSpace=wrap;html=1;aspect=fixed;fillColor=#fff2cc;gradientColor=#ffd966;strokeColor=#d6b656;" vertex="1" parent="1">
          <mxGeometry x="310" y="160" width="380" height="380" as="geometry" />
        </mxCell>
        <mxCell id="n2oKB4tU9eQ9gqRYAK6W-3" value="" style="ellipse;whiteSpace=wrap;html=1;aspect=fixed;fillColor=#f8cecc;gradientColor=#ea6b66;strokeColor=#b85450;" vertex="1" parent="1">
          <mxGeometry x="380" y="240" width="240" height="240" as="geometry" />
        </mxCell>
        <mxCell id="n2oKB4tU9eQ9gqRYAK6W-4" value="&lt;font style=&quot;font-size: 15px;&quot;&gt;Applications&lt;/font&gt;" style="text;html=1;strokeColor=none;fillColor=none;align=center;verticalAlign=middle;whiteSpace=wrap;rounded=0;" vertex="1" parent="1">
          <mxGeometry x="457.5" y="120" width="85" height="30" as="geometry" />
        </mxCell>
        <mxCell id="n2oKB4tU9eQ9gqRYAK6W-5" value="&lt;font style=&quot;font-size: 15px;&quot;&gt;AI tools (Langchain/ ChatGPT plugin)&lt;/font&gt;" style="text;html=1;strokeColor=none;fillColor=none;align=center;verticalAlign=middle;whiteSpace=wrap;rounded=0;" vertex="1" parent="1">
          <mxGeometry x="373" y="200" width="260" height="30" as="geometry" />
        </mxCell>
        <mxCell id="n2oKB4tU9eQ9gqRYAK6W-6" value="&lt;b&gt;OpenSearch&lt;br&gt;Vector DB&lt;/b&gt;" style="shape=cylinder3;whiteSpace=wrap;html=1;boundedLbl=1;backgroundOutline=1;size=15;fillColor=#fad9d5;strokeColor=#ae4132;strokeWidth=2;" vertex="1" parent="1">
          <mxGeometry x="394" y="310" width="78" height="80" as="geometry" />
        </mxCell>
        <mxCell id="n2oKB4tU9eQ9gqRYAK6W-8" value="LLM" style="shape=parallelogram;perimeter=parallelogramPerimeter;whiteSpace=wrap;html=1;fixedSize=1;fillColor=#fad9d5;strokeColor=#ae4132;" vertex="1" parent="1">
          <mxGeometry x="486" y="320" width="120" height="60" as="geometry" />
        </mxCell>
        <mxCell id="n2oKB4tU9eQ9gqRYAK6W-13" style="edgeStyle=orthogonalEdgeStyle;rounded=0;orthogonalLoop=1;jettySize=auto;html=1;exitX=0.5;exitY=0.5;exitDx=0;exitDy=0;exitPerimeter=0;" edge="1" parent="1" source="n2oKB4tU9eQ9gqRYAK6W-9" target="n2oKB4tU9eQ9gqRYAK6W-1">
          <mxGeometry relative="1" as="geometry" />
        </mxCell>
        <mxCell id="n2oKB4tU9eQ9gqRYAK6W-9" value="&lt;font style=&quot;font-size: 15px;&quot;&gt;User&lt;/font&gt;" style="shape=umlActor;verticalLabelPosition=bottom;verticalAlign=top;html=1;outlineConnect=0;" vertex="1" parent="1">
          <mxGeometry x="40" y="320" width="30" height="60" as="geometry" />
        </mxCell>
        <mxCell id="CCv-_H_iDLUY_1PC4YO1-1" value="&lt;b&gt;&lt;font style=&quot;font-size: 14px;&quot;&gt;Legends&lt;/font&gt;&lt;/b&gt;" style="rounded=0;whiteSpace=wrap;html=1;dashed=1;dashPattern=1 1;fontSize=12;verticalAlign=top;fillColor=#f5f5f5;strokeColor=#666666;gradientColor=#b3b3b3;" vertex="1" parent="1">
          <mxGeometry x="30" y="550" width="250" height="160" as="geometry" />
        </mxCell>
        <mxCell id="CCv-_H_iDLUY_1PC4YO1-2" value="" style="rounded=0;whiteSpace=wrap;html=1;dashed=1;dashPattern=1 1;fontSize=12;fillColor=#f8cecc;strokeColor=#b85450;gradientColor=#ea6b66;" vertex="1" parent="1">
          <mxGeometry x="43" y="587" width="30" height="20" as="geometry" />
        </mxCell>
        <mxCell id="CCv-_H_iDLUY_1PC4YO1-3" value="Core Component" style="text;html=1;strokeColor=none;fillColor=none;align=left;verticalAlign=middle;whiteSpace=wrap;rounded=0;dashed=1;dashPattern=1 1;fontSize=12;" vertex="1" parent="1">
          <mxGeometry x="83" y="582" width="170" height="30" as="geometry" />
        </mxCell>
        <mxCell id="CCv-_H_iDLUY_1PC4YO1-4" value="" style="rounded=0;whiteSpace=wrap;html=1;dashed=1;dashPattern=1 1;fontSize=12;fillColor=#fff2cc;strokeColor=#d6b656;gradientColor=#ffd966;" vertex="1" parent="1">
          <mxGeometry x="43" y="627" width="30" height="20" as="geometry" />
        </mxCell>
        <mxCell id="CCv-_H_iDLUY_1PC4YO1-5" value="AI Tools Layer (Swappable)" style="text;html=1;strokeColor=none;fillColor=none;align=left;verticalAlign=middle;whiteSpace=wrap;rounded=0;dashed=1;dashPattern=1 1;fontSize=12;" vertex="1" parent="1">
          <mxGeometry x="83" y="622" width="170" height="30" as="geometry" />
        </mxCell>
        <mxCell id="CCv-_H_iDLUY_1PC4YO1-6" value="" style="rounded=0;whiteSpace=wrap;html=1;dashed=1;dashPattern=1 1;fontSize=12;fillColor=#d5e8d4;strokeColor=#82b366;gradientColor=#97d077;" vertex="1" parent="1">
          <mxGeometry x="43" y="667" width="30" height="20" as="geometry" />
        </mxCell>
        <mxCell id="CCv-_H_iDLUY_1PC4YO1-7" value="Different Customer/Enterprise Applications" style="text;html=1;strokeColor=none;fillColor=none;align=left;verticalAlign=middle;whiteSpace=wrap;rounded=0;dashed=1;dashPattern=1 1;fontSize=12;" vertex="1" parent="1">
          <mxGeometry x="83" y="662" width="170" height="30" as="geometry" />
        </mxCell>
      </root>
    </mxGraphModel>
  </diagram>
</mxfile>
